<svg xmlns="http://www.w3.org/2000/svg" xmlns:xlink="http://www.w3.org/1999/xlink" width="500" zoomAndPan="magnify" viewBox="0 0 375 149.999998" height="200" preserveAspectRatio="xMidYMid meet" version="1.0"><g fill="#000000" fill-opacity="1"><g transform="translate(33.439899, 106.388873)"><g><path d="M 39.359375 -41.96875 L 39.359375 -31.140625 L 46.03125 -31.140625 L 46.03125 -3.484375 L 41.296875 -2.90625 L 47.875 11.796875 C 55.796875 8.703125 63.921875 2.03125 69.34375 -3.390625 L 66.71875 -7.828125 C 64.5 -7.15625 62.375 -6.671875 59.765625 -6 L 59.765625 -31.140625 L 62.65625 -31.140625 C 63.921875 -13.921875 69.34375 -2.328125 81.421875 7.640625 L 92.25 -5.90625 C 81.140625 -13.15625 75.234375 -19.4375 69.234375 -31.140625 L 89.359375 -31.140625 L 89.359375 -41.96875 L 59.765625 -41.96875 L 59.765625 -45.453125 C 73.203125 -50.09375 81.234375 -55.609375 89.734375 -62.375 L 75.8125 -73.296875 C 71.265625 -65.953125 66.34375 -59.671875 59.765625 -53.09375 L 59.765625 -76.875 L 46.03125 -76.875 L 46.03125 -41.96875 Z M 25.8125 -75.8125 L 25.8125 -73.390625 L 6.96875 -73.390625 L 6.96875 -63.625 L 25.8125 -63.625 L 25.8125 -51.34375 L 19.921875 -51.34375 L 20.109375 -53.859375 L 7.640625 -53.578125 L 6 -18.953125 L 18.46875 -19.25 L 18.5625 -21.765625 L 25.34375 -21.765625 C 24.859375 -14.125 24.265625 -5.21875 23.984375 -2.609375 L 9.1875 -2.609375 C 12.28125 1.15625 13.640625 6.1875 14.3125 10.34375 L 26.78125 10.34375 C 32.5 10.34375 35.78125 7.828125 36.84375 -0.1875 C 37.625 -5.3125 38.875 -30.078125 38.875 -33.5625 L 25.8125 -33.5625 L 25.8125 -31.140625 L 18.953125 -31.140625 L 19.53125 -41.875 L 25.8125 -41.875 L 25.8125 -40.03125 L 38.78125 -40.03125 L 38.78125 -75.8125 Z M 25.8125 -75.8125 "/></g></g></g><g fill="#000000" fill-opacity="1"><g transform="translate(134.5918, 106.388873)"><g><path d="M 23.015625 -72.4375 L 23.015625 -70.59375 L 19.046875 -70.59375 L 19.046875 -72.4375 L 6.28125 -72.4375 L 6.28125 -1.9375 L 19.046875 -1.9375 L 19.046875 -3.875 L 23.015625 -3.875 L 23.015625 -1.9375 L 34.90625 -1.9375 C 32.109375 1.734375 28.53125 4.9375 24.078125 7.734375 L 26.203125 11.5 C 49.03125 5.90625 55.40625 -3.765625 56.1875 -21.078125 L 59.46875 -21.078125 L 59.46875 0 C 59.46875 5.90625 63.046875 10.25 70.015625 10.25 L 82.296875 10.25 C 88.578125 10.25 91.765625 6.765625 91.765625 -0.09375 L 91.765625 -5.21875 C 87.421875 -6.765625 84.8125 -8.125 80.65625 -10.734375 L 80.65625 -3.390625 L 74.75 -3.390625 C 73.6875 -3.390625 73.203125 -3.96875 73.203125 -5.03125 L 73.203125 -21.078125 L 88.484375 -21.078125 L 88.484375 -30.75 L 36.84375 -30.75 L 36.84375 -21.078125 L 41.96875 -21.078125 C 41.390625 -14.21875 39.359375 -8.125 35.78125 -3 L 35.78125 -72.4375 Z M 37.234375 -65.375 L 38.484375 -55.890625 L 46.703125 -57.15625 C 48.15625 -52.890625 49.796875 -49.125 52.125 -46.03125 C 47.1875 -42.640625 41.875 -40.03125 36.0625 -38 L 37.328125 -32.78125 C 46.21875 -33.84375 53.484375 -35.59375 60.046875 -38.390625 C 61.703125 -37.234375 63.625 -36.171875 65.65625 -35.296875 C 70.296875 -33.265625 76.875 -31.8125 81.8125 -32.5 C 87.125 -33.265625 88.671875 -36.359375 89.9375 -43.421875 L 91.96875 -50.1875 C 88.484375 -51.640625 85 -54.15625 81.140625 -57.34375 L 80.65625 -55.03125 L 73.5 -61.21875 L 87.609375 -63.4375 L 86.359375 -73.015625 L 57.53125 -68.46875 C 57.0625 -71.265625 56.765625 -74.265625 56.46875 -77.453125 L 43.03125 -77.453125 C 43.328125 -73.5 43.703125 -69.8125 44.390625 -66.4375 Z M 19.046875 -59.953125 L 23.015625 -59.953125 L 23.015625 -42.546875 L 19.046875 -42.546875 Z M 19.046875 -31.90625 L 23.015625 -31.90625 L 23.015625 -14.5 L 19.046875 -14.5 Z M 68.375 -60.4375 C 66.71875 -58.5 64.890625 -56.578125 63.046875 -54.734375 C 61.984375 -56.28125 61.109375 -57.828125 60.4375 -59.28125 Z M 73.78125 -46.421875 C 75.8125 -48.0625 77.84375 -49.796875 79.875 -51.734375 L 78.421875 -44.875 C 76.78125 -45.25 75.234375 -45.734375 73.78125 -46.421875 Z M 73.78125 -46.421875 "/></g></g></g><g fill="#000000" fill-opacity="1"><g transform="translate(235.743701, 106.388873)"><g><path d="M 32.59375 -3.1875 C 35.96875 0.578125 37.8125 4.828125 38 9.375 L 45.546875 9.375 C 53.375 9.375 55.703125 5.515625 55.703125 -1.15625 L 55.703125 -73.875 L 43.125 -73.875 L 43.125 -71.078125 L 21.078125 -71.078125 L 21.078125 -73.875 L 8.40625 -73.875 L 8.40625 9.953125 L 21.078125 9.953125 L 21.078125 -9.375 L 22.53125 -8.40625 C 25.8125 -11.703125 28.71875 -15.46875 31.140625 -19.625 C 32.203125 -15.859375 33.171875 -11.890625 34.046875 -7.921875 L 43.125 -14.984375 L 43.125 -3.1875 Z M 61.109375 -3.484375 C 64.890625 0.296875 66.828125 5.125 66.828125 10.25 L 75.234375 10.25 C 84.03125 10.25 87.703125 5.21875 87.703125 -1.84375 L 87.703125 -77.359375 L 73.203125 -77.359375 L 73.203125 -3.484375 Z M 58.5 -68.46875 L 58.5 -9.28125 L 70.6875 -9.28125 L 70.6875 -68.46875 Z M 21.078125 -54.734375 L 21.078125 -62.078125 L 43.125 -62.078125 L 43.125 -22.921875 C 41.484375 -26.890625 39.640625 -30.65625 37.8125 -34.046875 C 40.421875 -41.390625 41.96875 -49.125 42.84375 -57.15625 L 31.53125 -59.078125 C 31.140625 -54.546875 30.65625 -50.375 29.984375 -46.125 C 27.65625 -49.3125 25.046875 -52.3125 22.140625 -55.21875 Z M 21.078125 -47.1875 C 23.3125 -42.453125 25.34375 -37.625 27.171875 -32.59375 C 25.53125 -26.5 23.5 -20.796875 21.078125 -15.375 Z M 21.078125 -47.1875 "/></g></g></g></svg>